<?xml version="1.0" encoding="iso-8859-1"?>
<!DOCTYPE svg PUBLIC "-//W3C//DTD SVG 1.1//EN" "http://www.w3.org/Graphics/SVG/1.1/DTD/svg11.dtd">
<svg xmlns="http://www.w3.org/2000/svg" xmlns:xlink="http://www.w3.org/1999/xlink" version="1.1" x="0px" y="0px" width="34px" height="34px" viewBox="0 0 463.172 463.172" style="enable-background:new 0 0 463.172 463.172;" xml:space="preserve">
		<path d="M309.171,447.479V287.847c0-8.668-5.902-15.7-13.188-15.7h-0.553V135.561h-13.562c0.04-22.564,0.209-41.357,0.337-56.923    c0.484-55.307,0.593-68.449-6.048-75.153C273.89,1.2,270.96,0,267.678,0c-4.416,0-8.7,2.188-14.134,4.959    c-4.785,2.45-10.752,5.498-18.236,7.82c-48.476,15.056-54.237,55.8-54.459,57.529l-0.054,65.253h-13.054v136.585h-0.549    c-7.288,0-13.19,7.032-13.19,15.7v159.624c0,8.677,5.903,15.701,13.19,15.701h128.791    C303.269,463.18,309.171,456.147,309.171,447.479z M279.729,272.146H183.44V152.707l96.289,1.104V272.146z" fill="#880088"/>
</svg>
